<?xml version="1.0" encoding="UTF-8"?>
<svg id="Layer_1" data-name="Layer 1" xmlns="http://www.w3.org/2000/svg" viewBox="0 0 2480 615.24">
  <defs>
    <style>
      .cls-1 {
        fill: #fff;
      }

      .cls-2 {
        fill: #23bad4;
      }

      .cls-3 {
        fill: #3e3f3f;
      }
    </style>
  </defs>
  <g>
    <g>
      <path class="cls-2" d="M749.35,225.16c-59.97,0-108.77,48.8-108.77,108.8s48.8,108.77,108.77,108.77,108.81-48.8,108.81-108.77v-108.8h-108.81ZM826.42,333.96c0,42.49-34.59,77.04-77.07,77.04s-77.04-34.55-77.04-77.04,34.55-77.07,77.04-77.07h77.07v77.07Z"/>
      <path class="cls-2" d="M1751.65,227.45c-57.22,0-103.8,46.54-103.8,103.76s46.58,103.8,103.8,103.8,103.76-46.58,103.76-103.8v-103.76h-103.76ZM1823.68,331.21c0,39.74-32.33,72.07-72.03,72.07s-72.07-32.33-72.07-72.07,32.33-72.03,72.07-72.03h72.03v72.03Z"/>
      <path class="cls-2" d="M858.15,28.28v179.39h-31.73V28.28c0-8.78,7.09-15.87,15.87-15.87,4.37,0,8.36,1.76,11.21,4.65,2.86,2.86,4.65,6.84,4.65,11.21Z"/>
      <g>
        <path class="cls-2" d="M1100.3,279c-8.92-15.72-21.23-28.06-36.91-36.99-15.69-8.92-33.14-13.36-52.32-13.36s-36.91,4.44-52.75,13.36c-15.83,8.92-28.21,21.19-37.2,36.81-8.96,15.62-13.47,33-13.47,52.08,0,29.51,10.26,54.16,30.71,74.01,20.45,19.81,46.08,29.72,76.83,29.72,18.83,0,36.14-3.81,51.86-11.46,15.76-7.65,28.59-18.16,38.54-31.45-11.42-9.8-28.03-10.93-40.41-2.47-3.14,2.15-6.49,4.13-10.08,5.96-11.78,5.96-24.72,8.92-38.78,8.92-18.97,0-35.01-5.29-48.13-15.9-13.12-10.61-21.37-24.57-24.75-41.89h155.38c8.11,0,14.81-6.52,14.84-14.63v-.07c0-19.32-4.44-36.88-13.36-52.64ZM943.05,316.19c3.14-16.82,10.93-30.53,23.38-41.15,12.41-10.61,27.18-15.9,44.25-15.9s32.01,5.25,44.42,15.72c12.45,10.47,20.2,24.26,23.38,41.32h-135.42Z"/>
        <path class="cls-2" d="M1262.8,236.72v21.12c0,3.63-2.96,6.56-6.59,6.56-10.33,0-19.6,1.52-27.78,4.55-8.18,3.03-15.27,7.58-21.26,13.64-11.99,12.09-17.98,28.45-17.98,49.04v81.73c0,9.17-7.44,16.57-16.57,16.57-4.58,0-8.74-1.83-11.71-4.87-3.03-2.96-4.87-7.12-4.87-11.71v-163.45c0-9.13,7.4-16.57,16.57-16.57,4.58,0,8.71,1.87,11.71,4.87,3,3,4.87,7.12,4.87,11.71v17.35c15.44-24.75,37.8-37.13,67.02-37.13,3.63,0,6.59,2.96,6.59,6.59Z"/>
        <path class="cls-2" d="M1607.76,303.01v110.36c0,9.17-7.4,16.57-16.57,16.57-4.58,0-8.71-1.83-11.71-4.87-3-2.96-4.87-7.12-4.87-11.71v-101.12c0-15.69-4.65-28.21-14.03-37.55-9.34-9.38-21.79-14.03-37.37-14.03s-28.98,4.76-38.78,14.31c-9.8,9.52-14.67,22.21-14.67,38.01v100.38c0,9.17-7.44,16.57-16.57,16.57-4.58,0-8.74-1.83-11.71-4.87-3.03-2.96-4.87-7.12-4.87-11.71v-101.12c0-15.69-4.69-28.21-14.03-37.55-9.38-9.38-21.82-14.03-37.37-14.03s-29.02,4.76-38.82,14.31c-9.77,9.52-14.67,22.21-14.67,38.01v100.38c0,9.17-7.44,16.57-16.57,16.57-4.58,0-8.71-1.83-11.74-4.87-2.96-2.96-4.83-7.12-4.83-11.71v-163.45c0-9.13,7.4-16.57,16.57-16.57,4.55,0,8.71,1.87,11.71,4.87,3,3,4.87,7.12,4.87,11.71v9.98c14.91-20.84,36.39-31.24,64.38-31.24,15.34,0,28.7,3.38,40.12,10.15,11.42,6.77,20.03,16.25,25.81,28.45,7.4-12.45,17.21-21.97,29.44-28.63,12.27-6.66,26.23-9.98,41.92-9.98,22.6,0,40.62,6.73,54.12,20.24,13.5,13.5,20.24,31.52,20.24,54.12Z"/>
        <path class="cls-2" d="M1934.28,168.75v244.62c0,9.17-7.4,16.57-16.57,16.57-4.55,0-8.71-1.83-11.71-4.87-3-2.96-4.87-7.12-4.87-11.71v-244.62c0-9.13,7.44-16.57,16.57-16.57,4.58,0,8.71,1.87,11.74,4.87,2.96,3,4.83,7.12,4.83,11.71Z"/>
        <path class="cls-2" d="M2028.63,171.95c0,6.28-2.12,11.53-6.31,15.72-4.2,4.2-9.38,6.31-15.55,6.31s-11.74-2.12-16.01-6.31c-4.27-4.2-6.38-9.45-6.38-15.72s2.12-11.67,6.38-15.8c4.27-4.16,9.63-6.24,16.01-6.24s11.49,2.08,15.65,6.24c4.13,4.13,6.21,9.41,6.21,15.8Z"/>
        <path class="cls-2" d="M2023.34,249.91v163.45c0,9.17-7.4,16.57-16.57,16.57-4.55,0-8.71-1.83-11.71-4.87-3-2.96-4.87-7.12-4.87-11.71v-163.45c0-9.13,7.44-16.57,16.57-16.57,4.58,0,8.71,1.87,11.74,4.87,2.96,3,4.83,7.12,4.83,11.71Z"/>
        <path class="cls-2" d="M2466.64,279c-8.92-15.72-21.23-28.06-36.91-36.99-15.69-8.92-33.14-13.36-52.36-13.36s-36.91,4.44-52.71,13.36c-15.83,8.92-28.24,21.19-37.2,36.81-8.99,15.62-13.47,33-13.47,52.08,0,29.51,10.22,54.16,30.71,74.01,20.45,19.81,46.05,29.72,76.83,29.72,18.83,0,36.1-3.81,51.86-11.46,15.76-7.65,28.59-18.16,38.5-31.45-11.39-9.8-27.99-10.97-40.41-2.47-3.1,2.15-6.45,4.13-10.05,5.96-11.81,5.96-24.75,8.92-38.78,8.92-18.97,0-35.01-5.29-48.13-15.9-13.12-10.61-21.37-24.57-24.75-41.89h155.34c8.14,0,14.84-6.52,14.88-14.63v-.07c0-19.32-4.48-36.88-13.36-52.64ZM2309.39,316.19c3.14-16.82,10.93-30.53,23.34-41.15,12.45-10.61,27.18-15.9,44.25-15.9s32.01,5.25,44.46,15.72c12.41,10.47,20.2,24.26,23.34,41.32h-135.39Z"/>
        <path class="cls-2" d="M2253.96,257.03l-68.93,156.79c-4.3,9.8-14,16.11-24.68,16.11-5.32,0-10.44-1.59-14.74-4.41-4.3-2.79-7.79-6.8-9.94-11.71l-68.79-156.79c-4.9-11.18,3.28-23.69,15.48-23.69h.99c6.77,0,12.9,4.05,15.55,10.33l62.12,146.53,61.91-146.53c2.64-6.24,8.78-10.33,15.55-10.33,12.2,0,20.38,12.55,15.48,23.69Z"/>
      </g>
    </g>
    <g>
      <circle class="cls-3" cx="262.06" cy="262.06" r="262.06"/>
      <path class="cls-1" d="M254.04,174.17c-52.87,0-95.89,43.02-95.89,95.92s43.02,95.89,95.89,95.89,95.92-43.02,95.92-95.89v-95.92h-95.92ZM321.99,270.09c0,37.45-30.49,67.91-67.94,67.91s-67.91-30.46-67.91-67.91,30.46-67.94,67.91-67.94h67.94v67.94Z"/>
    </g>
  </g>
  <g>
    <path class="cls-3" d="M1384.76,585.27v-84.63h24.8c1.01,0,2.64.02,4.88.06,2.23.03,4.37.21,6.41.52,6.23.91,11.39,3.3,15.48,7.18s7.14,8.8,9.15,14.78c1.99,5.98,3,12.57,3,19.77s-1.01,13.86-3,19.84c-2,5.98-5.05,10.89-9.15,14.75-4.09,3.86-9.25,6.24-15.48,7.14-2,.27-4.14.45-6.44.51-2.29.06-3.9.09-4.85.09h-24.8ZM1390.05,580.33h19.51c1.88,0,3.77-.05,5.67-.17,1.9-.12,3.49-.29,4.8-.53,5.57-.94,10.04-3.08,13.43-6.43,3.39-3.36,5.86-7.62,7.4-12.82,1.56-5.19,2.33-10.99,2.33-17.43s-.77-12.23-2.33-17.43c-1.54-5.19-4.01-9.46-7.4-12.81-3.39-3.35-7.86-5.5-13.43-6.43-1.3-.24-2.93-.41-4.88-.53-1.97-.12-3.82-.18-5.58-.18h-19.51v74.75Z"/>
    <path class="cls-3" d="M1486.9,587.03c-5.99,0-11.15-1.35-15.48-4.06-4.33-2.7-7.67-6.56-10.02-11.58-2.36-5.01-3.53-10.97-3.53-17.86s1.16-12.91,3.49-17.93c2.33-5.01,5.67-8.86,9.98-11.54,4.33-2.69,9.52-4.02,15.55-4.02s11.27,1.37,15.57,4.11c4.32,2.74,7.62,6.72,9.92,11.93,2.29,5.21,3.43,11.5,3.43,18.86h-5.27v-1.64c-.24-9.13-2.38-16.13-6.44-21-4.06-4.88-9.8-7.32-17.19-7.32s-13.36,2.5-17.52,7.49c-4.14,5-6.22,12.02-6.22,21.07s2.07,16.07,6.22,21.06c4.16,5,10,7.49,17.52,7.49,5.26,0,9.85-1.23,13.8-3.7,3.97-2.47,7.12-6.01,9.47-10.64l4.11,2.35c-2.59,5.41-6.25,9.58-10.99,12.52-4.73,2.94-10.21,4.41-16.39,4.41ZM1461.04,554.94v-4.93h51.72v4.93h-51.72Z"/>
    <path class="cls-3" d="M1551.89,586.91c-7.16,0-13.12-1.5-17.86-4.5-4.74-3-7.67-7.14-8.82-12.42l5.05-.94c1.06,3.91,3.55,7.05,7.45,9.4,3.89,2.35,8.67,3.53,14.3,3.53s10.34-1.23,13.72-3.71c3.39-2.47,5.09-5.81,5.09-10.04,0-2.31-.5-4.2-1.52-5.68-1.01-1.46-3.01-2.81-5.96-4.02-2.96-1.22-7.33-2.6-13.08-4.17-6.03-1.64-10.72-3.25-14.08-4.8-3.34-1.54-5.7-3.29-7.06-5.22-1.34-1.94-2.02-4.32-2.02-7.14,0-3.37.99-6.35,3-8.93,2-2.59,4.76-4.61,8.29-6.05,3.53-1.46,7.6-2.17,12.23-2.17s8.85.77,12.6,2.32c3.73,1.55,6.76,3.7,9.04,6.47,2.29,2.76,3.61,5.94,3.97,9.55l-5.05.94c-.75-4.43-3.01-7.93-6.78-10.49-3.78-2.57-8.49-3.85-14.15-3.85-5.29-.08-9.61,1-12.96,3.24-3.34,2.23-5.02,5.15-5.02,8.75,0,2,.57,3.72,1.71,5.15,1.13,1.43,3.1,2.73,5.93,3.9,2.83,1.18,6.75,2.39,11.77,3.65,6.34,1.6,11.29,3.23,14.83,4.87,3.55,1.65,6.03,3.57,7.47,5.76,1.42,2.19,2.14,4.92,2.14,8.17,0,5.76-2.16,10.28-6.46,13.55-4.32,3.27-10.22,4.91-17.76,4.91Z"/>
    <path class="cls-3" d="M1590.32,508.16v-7.52h4.95v7.52h-4.95ZM1590.32,585.27v-63.47h4.95v63.47h-4.95Z"/>
    <path class="cls-3" d="M1636.99,587.03c-5.99,0-11.03-1.48-15.12-4.44-4.11-2.96-7.21-6.98-9.32-12.05-2.12-5.08-3.19-10.79-3.19-17.13s1.04-11.87,3.12-16.93c2.07-5.05,5.1-9.06,9.08-12.01,3.99-2.96,8.82-4.44,14.49-4.44s10.91,1.44,14.97,4.32c4.04,2.88,7.11,6.84,9.2,11.88,2.07,5.03,3.12,10.76,3.12,17.19s-1.03,12-3.1,17.07c-2.06,5.07-5.04,9.1-8.96,12.07-3.92,2.98-8.68,4.47-14.28,4.47ZM1637.11,615.24c-3.05,0-6.13-.43-9.23-1.29-3.08-.86-5.99-2.32-8.72-4.38-2.72-2.06-5.05-4.87-6.97-8.43l4.35-2.94c2.11,4.35,5.09,7.43,8.94,9.26,3.84,1.82,7.71,2.73,11.63,2.73,5.69,0,10.12-1.07,13.31-3.2,3.2-2.13,5.45-5.31,6.73-9.52,1.3-4.21,1.94-9.45,1.94-15.72v-16.22h.48v-43.72h4.59v59.94c0,1.92-.05,3.78-.12,5.58-.09,1.81-.24,3.59-.48,5.35-.62,5.13-1.99,9.36-4.08,12.69-2.11,3.33-4.98,5.81-8.67,7.43-3.68,1.63-8.25,2.44-13.7,2.44ZM1636.99,582.09c4.98,0,9.15-1.25,12.48-3.76,3.36-2.51,5.87-5.93,7.55-10.26,1.7-4.32,2.53-9.21,2.53-14.66s-.86-10.43-2.55-14.72c-1.71-4.29-4.23-7.66-7.59-10.08-3.36-2.43-7.5-3.65-12.43-3.65s-9.23,1.24-12.54,3.73c-3.32,2.49-5.77,5.87-7.38,10.16-1.61,4.29-2.41,9.15-2.41,14.55s.84,10.34,2.53,14.66c1.68,4.33,4.18,7.75,7.48,10.26,3.32,2.51,7.42,3.76,12.31,3.76Z"/>
    <path class="cls-3" d="M1680.59,585.27v-63.47h4.59v12.92h.34v50.55h-4.93ZM1727.72,585.27v-33.62c0-4.55-.46-8.47-1.37-11.78-.92-3.31-2.29-6.05-4.09-8.23-1.8-2.17-3.99-3.79-6.54-4.85-2.57-1.06-5.5-1.58-8.79-1.58-3.89,0-7.19.68-9.92,2.02-2.72,1.35-4.92,3.2-6.61,5.56-1.68,2.35-2.91,5.05-3.7,8.11-.79,3.06-1.18,6.29-1.18,9.7l-4.57.11c0-7.24,1.2-13.09,3.58-17.54,2.4-4.45,5.55-7.69,9.49-9.73,3.94-2.04,8.24-3.06,12.91-3.06,3.2,0,6.15.45,8.84,1.35,2.69.9,5.07,2.2,7.18,3.9,2.09,1.7,3.87,3.79,5.31,6.26,1.46,2.47,2.55,5.28,3.29,8.43.75,3.15,1.13,6.61,1.13,10.37v34.56h-4.95Z"/>
    <path class="cls-3" d="M1773.45,587.03c-5.99,0-11.15-1.35-15.48-4.06-4.33-2.7-7.67-6.56-10.02-11.58-2.36-5.01-3.53-10.97-3.53-17.86s1.16-12.91,3.49-17.93c2.33-5.01,5.67-8.86,9.98-11.54,4.33-2.69,9.52-4.02,15.55-4.02s11.27,1.37,15.57,4.11c4.32,2.74,7.62,6.72,9.92,11.93,2.29,5.21,3.43,11.5,3.43,18.86h-5.27v-1.64c-.24-9.13-2.38-16.13-6.44-21-4.06-4.88-9.8-7.32-17.19-7.32s-13.36,2.5-17.52,7.49c-4.14,5-6.22,12.02-6.22,21.07s2.07,16.07,6.22,21.06c4.16,5,10,7.49,17.52,7.49,5.26,0,9.85-1.23,13.8-3.7,3.97-2.47,7.12-6.01,9.47-10.64l4.11,2.35c-2.59,5.41-6.25,9.58-10.99,12.52-4.73,2.94-10.21,4.41-16.39,4.41ZM1747.59,554.94v-4.93h51.72v4.93h-51.72Z"/>
    <path class="cls-3" d="M1839.38,587.03c-5.99,0-11.03-1.48-15.12-4.44-4.11-2.96-7.21-6.98-9.32-12.05-2.12-5.08-3.19-10.79-3.19-17.13s1.04-11.87,3.12-16.93c2.07-5.05,5.1-9.06,9.08-12.01,3.99-2.96,8.82-4.44,14.49-4.44s10.91,1.44,14.97,4.32c4.04,2.88,7.11,6.84,9.2,11.88,2.07,5.03,3.12,10.76,3.12,17.19s-1.03,12-3.1,17.07c-2.06,5.07-5.04,9.1-8.96,12.07-3.92,2.98-8.68,4.47-14.28,4.47ZM1839.38,582.09c4.98,0,9.15-1.25,12.48-3.76,3.36-2.51,5.87-5.93,7.55-10.26,1.7-4.32,2.53-9.21,2.53-14.66s-.86-10.43-2.55-14.72c-1.71-4.29-4.23-7.66-7.59-10.08-3.36-2.43-7.5-3.65-12.43-3.65s-9.23,1.24-12.54,3.73c-3.32,2.49-5.77,5.87-7.38,10.16-1.61,4.29-2.41,9.15-2.41,14.55s.84,10.34,2.53,14.66c1.68,4.33,4.18,7.75,7.48,10.26,3.32,2.51,7.42,3.76,12.31,3.76ZM1861.95,585.27v-49.96h-.36v-34.67h4.95v84.63h-4.59Z"/>
    <path class="cls-3" d="M1899.44,526.73v-4.93h39.85v4.93h-39.85ZM1939.29,585.27c-3.19.7-6.32.97-9.4.8-3.1-.18-5.87-.92-8.29-2.23-2.43-1.31-4.26-3.31-5.48-5.97-.92-2.07-1.46-4.18-1.58-6.32-.12-2.13-.17-4.57-.17-7.31v-60.06h4.93v60.06c0,2.74.03,4.96.09,6.64.05,1.69.46,3.28,1.2,4.76,1.42,2.83,3.65,4.56,6.71,5.21,3.05.64,7.04.56,11.99-.27v4.7Z"/>
    <path class="cls-3" d="M1974.78,587.03c-6.27,0-11.56-1.43-15.88-4.29-4.3-2.86-7.57-6.82-9.81-11.88-2.23-5.05-3.34-10.87-3.34-17.45s1.13-12.5,3.41-17.51c2.26-5.02,5.57-8.91,9.9-11.7,4.33-2.78,9.57-4.17,15.72-4.17s11.61,1.42,15.93,4.26c4.32,2.84,7.57,6.77,9.78,11.78,2.23,5.02,3.32,10.8,3.32,17.34s-1.11,12.57-3.34,17.61c-2.24,5.04-5.51,8.96-9.85,11.78-4.33,2.82-9.61,4.23-15.84,4.23ZM1974.78,582.09c8,0,13.94-2.65,17.86-7.96,3.92-5.31,5.87-12.21,5.87-20.71s-1.97-15.57-5.89-20.71c-3.94-5.15-9.9-7.73-17.85-7.73-5.36,0-9.81,1.22-13.31,3.65-3.51,2.42-6.13,5.78-7.84,10.04-1.73,4.27-2.59,9.19-2.59,14.75,0,8.62,2,15.56,6.01,20.81,4.02,5.25,9.93,7.87,17.73,7.87Z"/>
    <path class="cls-3" d="M2068.34,587.03c-5.72,0-10.86-.93-15.43-2.79-4.56-1.86-8.34-4.5-11.34-7.9-3-3.41-5-7.45-6.03-12.11l4.93-.94c1.54,5.8,4.8,10.39,9.76,13.75,4.98,3.37,11.01,5.05,18.1,5.05,4.93,0,9.25-.78,12.93-2.35,3.68-1.57,6.54-3.77,8.58-6.61,2.04-2.84,3.05-6.17,3.05-9.97,0-2.86-.51-5.25-1.58-7.17-1.06-1.92-2.4-3.48-4.02-4.68-1.63-1.19-3.32-2.14-5.09-2.84-1.76-.71-3.34-1.26-4.71-1.65l-21.15-6.35c-3.05-.9-5.69-2-7.91-3.29-2.21-1.29-4.02-2.77-5.43-4.41-1.4-1.64-2.47-3.45-3.15-5.4-.69-1.96-1.03-4.06-1.03-6.29,0-4.31,1.16-8.13,3.51-11.49,2.33-3.35,5.57-5.97,9.71-7.87,4.16-1.9,8.96-2.85,14.4-2.85s10.48,1.02,14.87,3.06c4.4,2.04,8,4.91,10.79,8.61,2.81,3.71,4.56,8.04,5.26,13.02l-4.93.94c-.55-4.11-2-7.72-4.35-10.84-2.35-3.12-5.39-5.53-9.11-7.26-3.72-1.72-7.9-2.59-12.52-2.59s-8.31.77-11.66,2.29c-3.36,1.52-5.96,3.59-7.84,6.17-1.88,2.59-2.83,5.48-2.83,8.69,0,3.37.91,6.07,2.74,8.08,1.82,2.02,4.04,3.59,6.66,4.7,2.62,1.12,5.14,2.03,7.54,2.73l17.5,5.29c1.49.43,3.31,1.07,5.46,1.91,2.16.85,4.28,2.05,6.39,3.61,2.09,1.57,3.84,3.64,5.22,6.2,1.39,2.57,2.09,5.79,2.09,9.67,0,3.65-.69,6.94-2.06,9.87-1.37,2.95-3.36,5.45-5.94,7.53-2.59,2.08-5.69,3.67-9.28,4.79-3.61,1.12-7.64,1.68-12.11,1.68Z"/>
    <path class="cls-3" d="M2109.47,585.27v-84.63h4.93v51.72l31.75-30.56h7.4l-33.16,31.73,38.21,31.73h-8.46l-35.74-30.56v30.56h-4.93Z"/>
    <path class="cls-3" d="M2165.66,508.16v-7.52h4.93v7.52h-4.93ZM2165.66,585.27v-63.47h4.93v63.47h-4.93Z"/>
    <path class="cls-3" d="M2188.24,585.27v-63.47h4.57v12.92h.36v50.55h-4.93ZM2235.37,585.27v-33.62c0-4.55-.46-8.47-1.39-11.78-.92-3.31-2.28-6.05-4.08-8.23s-3.99-3.79-6.56-4.85c-2.57-1.06-5.5-1.58-8.79-1.58-3.87,0-7.18.68-9.9,2.02-2.72,1.35-4.93,3.2-6.61,5.56-1.7,2.35-2.93,5.05-3.7,8.11-.79,3.06-1.18,6.29-1.18,9.7l-4.59.11c0-7.24,1.2-13.09,3.6-17.54,2.38-4.45,5.55-7.69,9.49-9.73,3.94-2.04,8.24-3.06,12.9-3.06,3.22,0,6.17.45,8.85,1.35,2.67.9,5.07,2.2,7.16,3.9,2.11,1.7,3.87,3.79,5.33,6.26,1.44,2.47,2.53,5.28,3.29,8.43.74,3.15,1.11,6.61,1.11,10.37v34.56h-4.93Z"/>
    <path class="cls-3" d="M2281.09,587.03c-6.32,0-11.61-1.41-15.88-4.23-4.26-2.83-7.5-6.75-9.69-11.78-2.19-5.04-3.36-10.87-3.48-17.49.12-6.78,1.28-12.67,3.49-17.69,2.23-5.02,5.46-8.91,9.73-11.66,4.28-2.77,9.54-4.14,15.82-4.14,5.87,0,11.11,1.4,15.72,4.2,4.59,2.81,7.86,6.65,9.78,11.55l-4.71,2c-1.76-4.07-4.47-7.23-8.13-9.46-3.66-2.23-7.88-3.35-12.66-3.35-5.34,0-9.74,1.21-13.24,3.61-3.48,2.41-6.08,5.76-7.81,10.05s-2.62,9.26-2.71,14.9c.12,8.61,2.16,15.53,6.11,20.75,3.96,5.21,9.83,7.81,17.64,7.81,4.66,0,8.79-1.07,12.4-3.23,3.6-2.16,6.35-5.31,8.27-9.46l4.83,2.12c-2.62,5.09-6.1,8.96-10.41,11.58-4.3,2.63-9.33,3.94-15.09,3.94Z"/>
    <path class="cls-3" d="M2337.38,587.03c-4.93,0-9.03-.86-12.28-2.59-3.25-1.72-5.69-4-7.3-6.82-1.59-2.83-2.4-5.88-2.4-9.17,0-3.72.8-6.81,2.43-9.26,1.63-2.45,3.75-4.38,6.39-5.79,2.62-1.41,5.45-2.43,8.46-3.06,3.68-.74,7.62-1.4,11.83-1.97,4.21-.57,8.1-1.04,11.66-1.44,3.58-.39,6.23-.7,8-.94l-1.76,1.18c.21-7.48-1.16-13.06-4.08-16.72-2.93-3.66-8.07-5.5-15.43-5.5-5.33,0-9.61,1.19-12.84,3.55-3.24,2.37-5.5,6.01-6.78,10.91l-5.41-1.41c1.4-5.88,4.3-10.34,8.67-13.4,4.37-3.06,9.9-4.58,16.61-4.58,5.87,0,10.77,1.19,14.68,3.58,3.92,2.39,6.59,5.63,8,9.7.55,1.57.94,3.47,1.18,5.7.24,2.23.34,4.4.34,6.52v39.73h-4.57v-17.4l2.35.12c-1.68,6.04-5.04,10.72-10.05,14.05-5.02,3.32-10.91,4.99-17.69,4.99ZM2337.16,582.09c4.57,0,8.61-.82,12.13-2.47,3.51-1.64,6.35-4.02,8.53-7.14s3.55-6.84,4.14-11.19c.31-2.19.46-4.55.46-7.06v-5.4l2.59,2c-2.07.2-4.95.46-8.61.8-3.66.33-7.52.76-11.59,1.29-4.08.52-7.76,1.2-11.06,2.02-1.92.47-3.89,1.22-5.93,2.23s-3.75,2.45-5.14,4.29c-1.4,1.84-2.09,4.21-2.09,7.12,0,2.04.5,4.09,1.52,6.17,1.01,2.08,2.74,3.83,5.14,5.23,2.41,1.41,5.72,2.12,9.92,2.12Z"/>
    <path class="cls-3" d="M2382.65,585.27v-63.47h4.57v15.16l-1.52-2c.67-1.72,1.51-3.33,2.53-4.82,1.01-1.49,2.02-2.71,3-3.64,1.71-1.69,3.77-2.97,6.13-3.85,2.38-.88,4.76-1.39,7.14-1.52,2.4-.14,4.5.09,6.35.68v4.7c-2.62-.59-5.41-.7-8.34-.33-2.95.37-5.69,1.73-8.24,4.08-2.23,2.07-3.8,4.46-4.73,7.17-.92,2.71-1.47,5.5-1.68,8.37-.19,2.89-.29,5.62-.29,8.2v31.26h-4.93Z"/>
    <path class="cls-3" d="M2446.36,587.03c-5.99,0-11.17-1.35-15.5-4.06-4.33-2.7-7.67-6.56-10.02-11.58-2.35-5.01-3.53-10.97-3.53-17.86s1.16-12.91,3.49-17.93c2.35-5.01,5.67-8.86,10-11.54,4.33-2.69,9.5-4.02,15.55-4.02s11.25,1.37,15.57,4.11c4.32,2.74,7.6,6.72,9.9,11.93,2.29,5.21,3.44,11.5,3.44,18.86h-5.29v-1.64c-.24-9.13-2.38-16.13-6.44-21-4.04-4.88-9.78-7.32-17.18-7.32s-13.38,2.5-17.52,7.49c-4.16,5-6.23,12.02-6.23,21.07s2.07,16.07,6.23,21.06c4.14,5,9.98,7.49,17.52,7.49,5.24,0,9.85-1.23,13.8-3.7,3.96-2.47,7.11-6.01,9.45-10.64l4.13,2.35c-2.59,5.41-6.25,9.58-10.99,12.52-4.74,2.94-10.21,4.41-16.39,4.41ZM2420.5,554.94v-4.93h51.7v4.93h-51.7Z"/>
  </g>
</svg>