<?xml version="1.0" encoding="utf-8"?>
<!-- Generator: Adobe Illustrator 27.0.0, SVG Export Plug-In . SVG Version: 6.00 Build 0)  -->
<svg version="1.1" id="Layer_1" xmlns="http://www.w3.org/2000/svg" xmlns:xlink="http://www.w3.org/1999/xlink" x="0px" y="0px"
	 viewBox="0 0 2480 615.2" style="enable-background:new 0 0 2480 615.2;" xml:space="preserve">
<style type="text/css">
	.st0{fill:#FFFFFF;}
	.st1{fill:#3E3F3F;}
</style>
<g>
	<g>
		<path class="st0" d="M749.3,225.2c-60,0-108.8,48.8-108.8,108.8s48.8,108.8,108.8,108.8S858.2,393.9,858.2,334V225.2L749.3,225.2
			L749.3,225.2z M826.4,334c0,42.5-34.6,77-77.1,77s-77-34.5-77-77s34.5-77.1,77-77.1h77.1V334z"/>
		<path class="st0" d="M1751.7,227.4c-57.2,0-103.8,46.5-103.8,103.8S1694.4,435,1751.7,435s103.8-46.6,103.8-103.8V227.5
			L1751.7,227.4L1751.7,227.4z M1823.7,331.2c0,39.7-32.3,72.1-72,72.1s-72.1-32.3-72.1-72.1s32.3-72,72.1-72h72V331.2z"/>
		<path class="st0" d="M858.2,28.3v179.4h-31.7V28.3c0-8.8,7.1-15.9,15.9-15.9c4.4,0,8.4,1.8,11.2,4.7
			C856.4,19.9,858.2,23.9,858.2,28.3L858.2,28.3z"/>
		<g>
			<path class="st0" d="M1100.3,279c-8.9-15.7-21.2-28.1-36.9-37c-15.7-8.9-33.1-13.4-52.3-13.4s-36.9,4.4-52.8,13.4
				c-15.8,8.9-28.2,21.2-37.2,36.8c-9,15.6-13.5,33-13.5,52.1c0,29.5,10.3,54.2,30.7,74c20.5,19.8,46.1,29.7,76.8,29.7
				c18.8,0,36.1-3.8,51.9-11.5c15.8-7.6,28.6-18.2,38.5-31.5c-11.4-9.8-28-10.9-40.4-2.5c-3.1,2.1-6.5,4.1-10.1,6
				c-11.8,6-24.7,8.9-38.8,8.9c-19,0-35-5.3-48.1-15.9s-21.4-24.6-24.8-41.9h155.4c8.1,0,14.8-6.5,14.8-14.6v-0.1
				C1113.7,312.3,1109.2,294.8,1100.3,279z M943,316.2c3.1-16.8,10.9-30.5,23.4-41.1c12.4-10.6,27.2-15.9,44.2-15.9
				s32,5.2,44.4,15.7c12.4,10.5,20.2,24.3,23.4,41.3L943,316.2L943,316.2z"/>
			<path class="st0" d="M1262.8,236.7v21.1c0,3.6-3,6.6-6.6,6.6c-10.3,0-19.6,1.5-27.8,4.5s-15.3,7.6-21.3,13.6
				c-12,12.1-18,28.5-18,49v81.7c0,9.2-7.4,16.6-16.6,16.6c-4.6,0-8.7-1.8-11.7-4.9c-3-3-4.9-7.1-4.9-11.7V249.9
				c0-9.1,7.4-16.6,16.6-16.6c4.6,0,8.7,1.9,11.7,4.9s4.9,7.1,4.9,11.7v17.3c15.4-24.8,37.8-37.1,67-37.1
				C1259.8,230.1,1262.8,233.1,1262.8,236.7L1262.8,236.7z"/>
			<path class="st0" d="M1607.8,303v110.4c0,9.2-7.4,16.6-16.6,16.6c-4.6,0-8.7-1.8-11.7-4.9c-3-3-4.9-7.1-4.9-11.7V312.2
				c0-15.7-4.7-28.2-14-37.5c-9.3-9.4-21.8-14-37.4-14s-29,4.8-38.8,14.3c-9.8,9.5-14.7,22.2-14.7,38v100.4
				c0,9.2-7.4,16.6-16.6,16.6c-4.6,0-8.7-1.8-11.7-4.9c-3-3-4.9-7.1-4.9-11.7V312.2c0-15.7-4.7-28.2-14-37.5
				c-9.4-9.4-21.8-14-37.4-14s-29,4.8-38.8,14.3c-9.8,9.5-14.7,22.2-14.7,38v100.4c0,9.2-7.4,16.6-16.6,16.6
				c-4.6,0-8.7-1.8-11.7-4.9c-3-3-4.8-7.1-4.8-11.7V249.9c0-9.1,7.4-16.6,16.6-16.6c4.6,0,8.7,1.9,11.7,4.9s4.9,7.1,4.9,11.7v10
				c14.9-20.8,36.4-31.2,64.4-31.2c15.3,0,28.7,3.4,40.1,10.1c11.4,6.8,20,16.2,25.8,28.4c7.4-12.4,17.2-22,29.4-28.6
				c12.3-6.7,26.2-10,41.9-10c22.6,0,40.6,6.7,54.1,20.2C1601,262.4,1607.8,280.4,1607.8,303L1607.8,303z"/>
			<path class="st0" d="M1934.3,168.8v244.6c0,9.2-7.4,16.6-16.6,16.6c-4.6,0-8.7-1.8-11.7-4.9c-3-3-4.9-7.1-4.9-11.7V168.7
				c0-9.1,7.4-16.6,16.6-16.6c4.6,0,8.7,1.9,11.7,4.9C1932.4,160,1934.3,164.2,1934.3,168.8L1934.3,168.8z"/>
			<path class="st0" d="M2028.6,171.9c0,6.3-2.1,11.5-6.3,15.7c-4.2,4.2-9.4,6.3-15.6,6.3s-11.7-2.1-16-6.3
				c-4.3-4.2-6.4-9.4-6.4-15.7s2.1-11.7,6.4-15.8c4.3-4.2,9.6-6.2,16-6.2s11.5,2.1,15.7,6.2C2026.5,160.3,2028.6,165.6,2028.6,171.9
				L2028.6,171.9z"/>
			<path class="st0" d="M2023.3,249.9v163.4c0,9.2-7.4,16.6-16.6,16.6c-4.6,0-8.7-1.8-11.7-4.9c-3-3-4.9-7.1-4.9-11.7V249.9
				c0-9.1,7.4-16.6,16.6-16.6c4.6,0,8.7,1.9,11.7,4.9C2021.5,241.2,2023.3,245.3,2023.3,249.9L2023.3,249.9z"/>
			<path class="st0" d="M2466.6,279c-8.9-15.7-21.2-28.1-36.9-37c-15.7-8.9-33.1-13.4-52.4-13.4s-36.9,4.4-52.7,13.4
				c-15.8,8.9-28.2,21.2-37.2,36.8c-9,15.6-13.5,33-13.5,52.1c0,29.5,10.2,54.2,30.7,74c20.4,19.8,46.1,29.7,76.8,29.7
				c18.8,0,36.1-3.8,51.9-11.5s28.6-18.2,38.5-31.5c-11.4-9.8-28-11-40.4-2.5c-3.1,2.1-6.4,4.1-10.1,6c-11.8,6-24.8,8.9-38.8,8.9
				c-19,0-35-5.3-48.1-15.9c-13.1-10.6-21.4-24.6-24.8-41.9h155.3c8.1,0,14.8-6.5,14.9-14.6v-0.1
				C2480,312.3,2475.5,294.8,2466.6,279L2466.6,279z M2309.4,316.2c3.1-16.8,10.9-30.5,23.3-41.1c12.4-10.6,27.2-15.9,44.2-15.9
				s32,5.2,44.5,15.7c12.4,10.5,20.2,24.3,23.3,41.3L2309.4,316.2L2309.4,316.2z"/>
			<path class="st0" d="M2254,257L2185,413.8c-4.3,9.8-14,16.1-24.7,16.1c-5.3,0-10.4-1.6-14.7-4.4c-4.3-2.8-7.8-6.8-9.9-11.7
				L2066.9,257c-4.9-11.2,3.3-23.7,15.5-23.7h1c6.8,0,12.9,4.1,15.6,10.3l62.1,146.5l61.9-146.5c2.6-6.2,8.8-10.3,15.6-10.3
				C2250.7,233.3,2258.9,245.9,2254,257L2254,257z"/>
		</g>
	</g>
	<g>
		<circle class="st1" cx="262.1" cy="262.1" r="262.1"/>
		<path class="st0" d="M254,174.2c-52.9,0-95.9,43-95.9,95.9s43,95.9,95.9,95.9s95.9-43,95.9-95.9v-95.9L254,174.2L254,174.2z
			 M322,270.1c0,37.5-30.5,67.9-67.9,67.9s-67.9-30.5-67.9-67.9s30.5-67.9,67.9-67.9H322V270.1z"/>
	</g>
</g>
<g>
	<path class="st0" d="M1384.8,585.3v-84.6h24.8c1,0,2.6,0,4.9,0.1c2.2,0,4.4,0.2,6.4,0.5c6.2,0.9,11.4,3.3,15.5,7.2
		c4.1,3.9,7.1,8.8,9.2,14.8c2,6,3,12.6,3,19.8s-1,13.9-3,19.8c-2,6-5.1,10.9-9.2,14.8c-4.1,3.9-9.2,6.2-15.5,7.1
		c-2,0.3-4.1,0.5-6.4,0.5c-2.3,0.1-3.9,0.1-4.8,0.1L1384.8,585.3L1384.8,585.3z M1390.1,580.3h19.5c1.9,0,3.8,0,5.7-0.2
		s3.5-0.3,4.8-0.5c5.6-0.9,10-3.1,13.4-6.4c3.4-3.4,5.9-7.6,7.4-12.8c1.6-5.2,2.3-11,2.3-17.4s-0.8-12.2-2.3-17.4
		c-1.5-5.2-4-9.5-7.4-12.8c-3.4-3.4-7.9-5.5-13.4-6.4c-1.3-0.2-2.9-0.4-4.9-0.5c-2-0.1-3.8-0.2-5.6-0.2h-19.5L1390.1,580.3
		L1390.1,580.3z"/>
	<path class="st0" d="M1486.9,587c-6,0-11.2-1.3-15.5-4.1c-4.3-2.7-7.7-6.6-10-11.6c-2.4-5-3.5-11-3.5-17.9s1.2-12.9,3.5-17.9
		c2.3-5,5.7-8.9,10-11.5c4.3-2.7,9.5-4,15.6-4s11.3,1.4,15.6,4.1c4.3,2.7,7.6,6.7,9.9,11.9c2.3,5.2,3.4,11.5,3.4,18.9h-5.3v-1.6
		c-0.2-9.1-2.4-16.1-6.4-21c-4.1-4.9-9.8-7.3-17.2-7.3s-13.4,2.5-17.5,7.5c-4.1,5-6.2,12-6.2,21.1s2.1,16.1,6.2,21.1
		c4.2,5,10,7.5,17.5,7.5c5.3,0,9.8-1.2,13.8-3.7c4-2.5,7.1-6,9.5-10.6l4.1,2.3c-2.6,5.4-6.2,9.6-11,12.5
		C1498.6,585.6,1493.1,587,1486.9,587L1486.9,587z M1461,554.9V550h51.7v4.9H1461z"/>
	<path class="st0" d="M1551.9,586.9c-7.2,0-13.1-1.5-17.9-4.5s-7.7-7.1-8.8-12.4l5.1-0.9c1.1,3.9,3.6,7,7.4,9.4
		c3.9,2.3,8.7,3.5,14.3,3.5s10.3-1.2,13.7-3.7c3.4-2.5,5.1-5.8,5.1-10c0-2.3-0.5-4.2-1.5-5.7c-1-1.5-3-2.8-6-4
		c-3-1.2-7.3-2.6-13.1-4.2c-6-1.6-10.7-3.2-14.1-4.8c-3.3-1.5-5.7-3.3-7.1-5.2c-1.3-1.9-2-4.3-2-7.1c0-3.4,1-6.3,3-8.9
		c2-2.6,4.8-4.6,8.3-6c3.5-1.5,7.6-2.2,12.2-2.2s8.8,0.8,12.6,2.3c3.7,1.5,6.8,3.7,9,6.5c2.3,2.8,3.6,5.9,4,9.5l-5.1,0.9
		c-0.8-4.4-3-7.9-6.8-10.5c-3.8-2.6-8.5-3.8-14.2-3.8c-5.3-0.1-9.6,1-13,3.2c-3.3,2.2-5,5.2-5,8.8c0,2,0.6,3.7,1.7,5.2
		c1.1,1.4,3.1,2.7,5.9,3.9c2.8,1.2,6.8,2.4,11.8,3.7c6.3,1.6,11.3,3.2,14.8,4.9c3.6,1.7,6,3.6,7.5,5.8c1.4,2.2,2.1,4.9,2.1,8.2
		c0,5.8-2.2,10.3-6.5,13.5C1565.3,585.3,1559.4,586.9,1551.9,586.9L1551.9,586.9z"/>
	<path class="st0" d="M1590.3,508.2v-7.5h4.9v7.5H1590.3z M1590.3,585.3v-63.5h4.9v63.5H1590.3z"/>
	<path class="st0" d="M1637,587c-6,0-11-1.5-15.1-4.4c-4.1-3-7.2-7-9.3-12c-2.1-5.1-3.2-10.8-3.2-17.1s1-11.9,3.1-16.9
		c2.1-5,5.1-9.1,9.1-12c4-3,8.8-4.4,14.5-4.4s10.9,1.4,15,4.3c4,2.9,7.1,6.8,9.2,11.9c2.1,5,3.1,10.8,3.1,17.2s-1,12-3.1,17.1
		c-2.1,5.1-5,9.1-9,12.1C1647.4,585.5,1642.6,587,1637,587L1637,587z M1637.1,615.2c-3.1,0-6.1-0.4-9.2-1.3c-3.1-0.9-6-2.3-8.7-4.4
		c-2.7-2.1-5.1-4.9-7-8.4l4.3-2.9c2.1,4.3,5.1,7.4,8.9,9.3c3.8,1.8,7.7,2.7,11.6,2.7c5.7,0,10.1-1.1,13.3-3.2
		c3.2-2.1,5.4-5.3,6.7-9.5c1.3-4.2,1.9-9.5,1.9-15.7v-16.2h0.5v-43.7h4.6v59.9c0,1.9-0.1,3.8-0.1,5.6c-0.1,1.8-0.2,3.6-0.5,5.3
		c-0.6,5.1-2,9.4-4.1,12.7c-2.1,3.3-5,5.8-8.7,7.4C1647.1,614.4,1642.6,615.2,1637.1,615.2L1637.1,615.2z M1637,582.1
		c5,0,9.2-1.2,12.5-3.8c3.4-2.5,5.9-5.9,7.6-10.3c1.7-4.3,2.5-9.2,2.5-14.7s-0.9-10.4-2.6-14.7c-1.7-4.3-4.2-7.7-7.6-10.1
		c-3.4-2.4-7.5-3.7-12.4-3.7s-9.2,1.2-12.5,3.7c-3.3,2.5-5.8,5.9-7.4,10.2s-2.4,9.2-2.4,14.5s0.8,10.3,2.5,14.7
		c1.7,4.3,4.2,7.8,7.5,10.3C1628,580.8,1632.1,582.1,1637,582.1L1637,582.1z"/>
	<path class="st0" d="M1680.6,585.3v-63.5h4.6v12.9h0.3v50.5H1680.6L1680.6,585.3z M1727.7,585.3v-33.6c0-4.5-0.5-8.5-1.4-11.8
		c-0.9-3.3-2.3-6-4.1-8.2c-1.8-2.2-4-3.8-6.5-4.8c-2.6-1.1-5.5-1.6-8.8-1.6c-3.9,0-7.2,0.7-9.9,2c-2.7,1.3-4.9,3.2-6.6,5.6
		c-1.7,2.3-2.9,5-3.7,8.1c-0.8,3.1-1.2,6.3-1.2,9.7l-4.6,0.1c0-7.2,1.2-13.1,3.6-17.5c2.4-4.5,5.6-7.7,9.5-9.7s8.2-3.1,12.9-3.1
		c3.2,0,6.2,0.5,8.8,1.3c2.7,0.9,5.1,2.2,7.2,3.9c2.1,1.7,3.9,3.8,5.3,6.3c1.5,2.5,2.6,5.3,3.3,8.4c0.8,3.2,1.1,6.6,1.1,10.4v34.6
		L1727.7,585.3L1727.7,585.3z"/>
	<path class="st0" d="M1773.4,587c-6,0-11.2-1.3-15.5-4.1c-4.3-2.7-7.7-6.6-10-11.6c-2.4-5-3.5-11-3.5-17.9s1.2-12.9,3.5-17.9
		c2.3-5,5.7-8.9,10-11.5c4.3-2.7,9.5-4,15.6-4s11.3,1.4,15.6,4.1c4.3,2.7,7.6,6.7,9.9,11.9c2.3,5.2,3.4,11.5,3.4,18.9h-5.3v-1.6
		c-0.2-9.1-2.4-16.1-6.4-21c-4.1-4.9-9.8-7.3-17.2-7.3s-13.4,2.5-17.5,7.5c-4.1,5-6.2,12-6.2,21.1s2.1,16.1,6.2,21.1
		c4.2,5,10,7.5,17.5,7.5c5.3,0,9.8-1.2,13.8-3.7c4-2.5,7.1-6,9.5-10.6l4.1,2.3c-2.6,5.4-6.2,9.6-11,12.5
		C1785.1,585.6,1779.6,587,1773.4,587L1773.4,587z M1747.6,554.9V550h51.7v4.9H1747.6z"/>
	<path class="st0" d="M1839.4,587c-6,0-11-1.5-15.1-4.4c-4.1-3-7.2-7-9.3-12c-2.1-5.1-3.2-10.8-3.2-17.1s1-11.9,3.1-16.9
		c2.1-5,5.1-9.1,9.1-12c4-3,8.8-4.4,14.5-4.4s10.9,1.4,15,4.3c4,2.9,7.1,6.8,9.2,11.9c2.1,5,3.1,10.8,3.1,17.2s-1,12-3.1,17.1
		c-2.1,5.1-5,9.1-9,12.1C1849.8,585.5,1845,587,1839.4,587L1839.4,587z M1839.4,582.1c5,0,9.2-1.2,12.5-3.8
		c3.4-2.5,5.9-5.9,7.6-10.3c1.7-4.3,2.5-9.2,2.5-14.7s-0.9-10.4-2.6-14.7c-1.7-4.3-4.2-7.7-7.6-10.1c-3.4-2.4-7.5-3.7-12.4-3.7
		s-9.2,1.2-12.5,3.7c-3.3,2.5-5.8,5.9-7.4,10.2s-2.4,9.2-2.4,14.5s0.8,10.3,2.5,14.7c1.7,4.3,4.2,7.8,7.5,10.3
		C1830.4,580.8,1834.5,582.1,1839.4,582.1L1839.4,582.1z M1861.9,585.3v-50h-0.4v-34.7h4.9v84.6H1861.9z"/>
	<path class="st0" d="M1899.4,526.7v-4.9h39.8v4.9H1899.4z M1939.3,585.3c-3.2,0.7-6.3,1-9.4,0.8c-3.1-0.2-5.9-0.9-8.3-2.2
		c-2.4-1.3-4.3-3.3-5.5-6c-0.9-2.1-1.5-4.2-1.6-6.3c-0.1-2.1-0.2-4.6-0.2-7.3v-60.1h4.9v60.1c0,2.7,0,5,0.1,6.6
		c0.1,1.7,0.5,3.3,1.2,4.8c1.4,2.8,3.7,4.6,6.7,5.2c3.1,0.6,7,0.6,12-0.3L1939.3,585.3L1939.3,585.3z"/>
	<path class="st0" d="M1974.8,587c-6.3,0-11.6-1.4-15.9-4.3c-4.3-2.9-7.6-6.8-9.8-11.9c-2.2-5-3.3-10.9-3.3-17.5s1.1-12.5,3.4-17.5
		c2.3-5,5.6-8.9,9.9-11.7c4.3-2.8,9.6-4.2,15.7-4.2s11.6,1.4,15.9,4.3c4.3,2.8,7.6,6.8,9.8,11.8c2.2,5,3.3,10.8,3.3,17.3
		s-1.1,12.6-3.3,17.6c-2.2,5-5.5,9-9.8,11.8C1986.3,585.6,1981,587,1974.8,587L1974.8,587z M1974.8,582.1c8,0,13.9-2.7,17.9-8
		s5.9-12.2,5.9-20.7s-2-15.6-5.9-20.7c-3.9-5.2-9.9-7.7-17.8-7.7c-5.4,0-9.8,1.2-13.3,3.7c-3.5,2.4-6.1,5.8-7.8,10
		c-1.7,4.3-2.6,9.2-2.6,14.8c0,8.6,2,15.6,6,20.8C1961.1,579.5,1967,582.1,1974.8,582.1L1974.8,582.1z"/>
	<path class="st0" d="M2068.3,587c-5.7,0-10.9-0.9-15.4-2.8c-4.6-1.9-8.3-4.5-11.3-7.9c-3-3.4-5-7.5-6-12.1l4.9-0.9
		c1.5,5.8,4.8,10.4,9.8,13.8c5,3.4,11,5,18.1,5c4.9,0,9.2-0.8,12.9-2.3c3.7-1.6,6.5-3.8,8.6-6.6c2-2.8,3.1-6.2,3.1-10
		c0-2.9-0.5-5.2-1.6-7.2c-1.1-1.9-2.4-3.5-4-4.7c-1.6-1.2-3.3-2.1-5.1-2.8c-1.8-0.7-3.3-1.3-4.7-1.7l-21.1-6.3
		c-3.1-0.9-5.7-2-7.9-3.3c-2.2-1.3-4-2.8-5.4-4.4c-1.4-1.6-2.5-3.5-3.2-5.4c-0.7-2-1-4.1-1-6.3c0-4.3,1.2-8.1,3.5-11.5
		c2.3-3.4,5.6-6,9.7-7.9c4.2-1.9,9-2.9,14.4-2.9s10.5,1,14.9,3.1c4.4,2,8,4.9,10.8,8.6c2.8,3.7,4.6,8,5.3,13l-4.9,0.9
		c-0.6-4.1-2-7.7-4.4-10.8c-2.4-3.1-5.4-5.5-9.1-7.3c-3.7-1.7-7.9-2.6-12.5-2.6s-8.3,0.8-11.7,2.3c-3.4,1.5-6,3.6-7.8,6.2
		c-1.9,2.6-2.8,5.5-2.8,8.7c0,3.4,0.9,6.1,2.7,8.1c1.8,2,4,3.6,6.7,4.7c2.6,1.1,5.1,2,7.5,2.7l17.5,5.3c1.5,0.4,3.3,1.1,5.5,1.9
		c2.2,0.8,4.3,2,6.4,3.6c2.1,1.6,3.8,3.6,5.2,6.2c1.4,2.6,2.1,5.8,2.1,9.7c0,3.7-0.7,6.9-2.1,9.9c-1.4,3-3.4,5.5-5.9,7.5
		c-2.6,2.1-5.7,3.7-9.3,4.8C2076.8,586.5,2072.8,587,2068.3,587L2068.3,587z"/>
	<path class="st0" d="M2109.5,585.3v-84.6h4.9v51.7l31.8-30.6h7.4l-33.2,31.7l38.2,31.7h-8.5l-35.7-30.6v30.6L2109.5,585.3
		L2109.5,585.3z"/>
	<path class="st0" d="M2165.7,508.2v-7.5h4.9v7.5H2165.7z M2165.7,585.3v-63.5h4.9v63.5H2165.7z"/>
	<path class="st0" d="M2188.2,585.3v-63.5h4.6v12.9h0.4v50.5H2188.2L2188.2,585.3z M2235.4,585.3v-33.6c0-4.5-0.5-8.5-1.4-11.8
		c-0.9-3.3-2.3-6-4.1-8.2s-4-3.8-6.6-4.8s-5.5-1.6-8.8-1.6c-3.9,0-7.2,0.7-9.9,2c-2.7,1.3-4.9,3.2-6.6,5.6c-1.7,2.3-2.9,5-3.7,8.1
		c-0.8,3.1-1.2,6.3-1.2,9.7l-4.6,0.1c0-7.2,1.2-13.1,3.6-17.5c2.4-4.5,5.6-7.7,9.5-9.7s8.2-3.1,12.9-3.1c3.2,0,6.2,0.5,8.9,1.3
		c2.7,0.9,5.1,2.2,7.2,3.9c2.1,1.7,3.9,3.8,5.3,6.3c1.4,2.5,2.5,5.3,3.3,8.4c0.7,3.2,1.1,6.6,1.1,10.4v34.6L2235.4,585.3
		L2235.4,585.3z"/>
	<path class="st0" d="M2281.1,587c-6.3,0-11.6-1.4-15.9-4.2c-4.3-2.8-7.5-6.8-9.7-11.8c-2.2-5-3.4-10.9-3.5-17.5
		c0.1-6.8,1.3-12.7,3.5-17.7c2.2-5,5.5-8.9,9.7-11.7c4.3-2.8,9.5-4.1,15.8-4.1c5.9,0,11.1,1.4,15.7,4.2c4.6,2.8,7.9,6.7,9.8,11.5
		l-4.7,2c-1.8-4.1-4.5-7.2-8.1-9.5c-3.7-2.2-7.9-3.3-12.7-3.3c-5.3,0-9.7,1.2-13.2,3.6c-3.5,2.4-6.1,5.8-7.8,10s-2.6,9.3-2.7,14.9
		c0.1,8.6,2.2,15.5,6.1,20.8c4,5.2,9.8,7.8,17.6,7.8c4.7,0,8.8-1.1,12.4-3.2c3.6-2.2,6.4-5.3,8.3-9.5l4.8,2.1
		c-2.6,5.1-6.1,9-10.4,11.6C2291.9,585.7,2286.8,587.1,2281.1,587L2281.1,587z"/>
	<path class="st0" d="M2337.4,587c-4.9,0-9-0.9-12.3-2.6c-3.2-1.7-5.7-4-7.3-6.8c-1.6-2.8-2.4-5.9-2.4-9.2c0-3.7,0.8-6.8,2.4-9.3
		s3.8-4.4,6.4-5.8c2.6-1.4,5.4-2.4,8.5-3.1c3.7-0.7,7.6-1.4,11.8-2c4.2-0.6,8.1-1,11.7-1.4c3.6-0.4,6.2-0.7,8-0.9l-1.8,1.2
		c0.2-7.5-1.2-13.1-4.1-16.7c-2.9-3.7-8.1-5.5-15.4-5.5c-5.3,0-9.6,1.2-12.8,3.5c-3.2,2.4-5.5,6-6.8,10.9l-5.4-1.4
		c1.4-5.9,4.3-10.3,8.7-13.4c4.4-3.1,9.9-4.6,16.6-4.6c5.9,0,10.8,1.2,14.7,3.6c3.9,2.4,6.6,5.6,8,9.7c0.6,1.6,0.9,3.5,1.2,5.7
		c0.2,2.2,0.3,4.4,0.3,6.5v39.7h-4.6v-17.4l2.4,0.1c-1.7,6-5,10.7-10.1,14C2350.1,585.3,2344.2,587,2337.4,587L2337.4,587z
		 M2337.2,582.1c4.6,0,8.6-0.8,12.1-2.5c3.5-1.6,6.4-4,8.5-7.1s3.6-6.8,4.1-11.2c0.3-2.2,0.5-4.5,0.5-7.1v-5.4l2.6,2
		c-2.1,0.2-4.9,0.5-8.6,0.8c-3.7,0.3-7.5,0.8-11.6,1.3c-4.1,0.5-7.8,1.2-11.1,2c-1.9,0.5-3.9,1.2-5.9,2.2s-3.8,2.5-5.1,4.3
		c-1.4,1.8-2.1,4.2-2.1,7.1c0,2,0.5,4.1,1.5,6.2c1,2.1,2.7,3.8,5.1,5.2C2329.7,581.4,2333,582.1,2337.2,582.1L2337.2,582.1z"/>
	<path class="st0" d="M2382.6,585.3v-63.5h4.6V537l-1.5-2c0.7-1.7,1.5-3.3,2.5-4.8c1-1.5,2-2.7,3-3.6c1.7-1.7,3.8-3,6.1-3.8
		c2.4-0.9,4.8-1.4,7.1-1.5c2.4-0.1,4.5,0.1,6.4,0.7v4.7c-2.6-0.6-5.4-0.7-8.3-0.3c-2.9,0.4-5.7,1.7-8.2,4.1
		c-2.2,2.1-3.8,4.5-4.7,7.2c-0.9,2.7-1.5,5.5-1.7,8.4c-0.2,2.9-0.3,5.6-0.3,8.2v31.3L2382.6,585.3L2382.6,585.3z"/>
	<path class="st0" d="M2446.4,587c-6,0-11.2-1.3-15.5-4.1c-4.3-2.7-7.7-6.6-10-11.6c-2.4-5-3.5-11-3.5-17.9s1.2-12.9,3.5-17.9
		c2.4-5,5.7-8.9,10-11.5c4.3-2.7,9.5-4,15.6-4s11.2,1.4,15.6,4.1s7.6,6.7,9.9,11.9c2.3,5.2,3.4,11.5,3.4,18.9h-5.3v-1.6
		c-0.2-9.1-2.4-16.1-6.4-21c-4-4.9-9.8-7.3-17.2-7.3s-13.4,2.5-17.5,7.5c-4.2,5-6.2,12-6.2,21.1s2.1,16.1,6.2,21.1
		c4.1,5,10,7.5,17.5,7.5c5.2,0,9.9-1.2,13.8-3.7c4-2.5,7.1-6,9.4-10.6l4.1,2.3c-2.6,5.4-6.2,9.6-11,12.5S2452.5,587,2446.4,587
		L2446.4,587z M2420.5,554.9V550h51.7v4.9H2420.5z"/>
</g>
</svg>
